<mxfile host="app.diagrams.net" modified="2020-10-03T02:04:12.799Z" agent="5.0 (Windows NT 10.0; Win64; x64) AppleWebKit/537.36 (KHTML, like Gecko) Chrome/85.0.4183.121 Safari/537.36 OPR/71.0.3770.198" etag="2ZljdbUyxb7K-eZjONmj" version="13.7.7" type="github">
  <diagram id="R2lEEEUBdFMjLlhIrx00" name="Page-1">
    <mxGraphModel dx="2022" dy="1155" grid="1" gridSize="10" guides="1" tooltips="1" connect="1" arrows="1" fold="1" page="1" pageScale="1" pageWidth="850" pageHeight="1100" math="0" shadow="0" extFonts="Permanent Marker^https://fonts.googleapis.com/css?family=Permanent+Marker">
      <root>
        <mxCell id="0" />
        <mxCell id="1" parent="0" />
        <mxCell id="nrHez7E21eq-uyOyRulU-30" style="edgeStyle=orthogonalEdgeStyle;rounded=0;orthogonalLoop=1;jettySize=auto;html=1;entryX=-0.019;entryY=0.1;entryDx=0;entryDy=0;entryPerimeter=0;startArrow=none;startFill=0;endArrow=ERmany;endFill=0;dashed=1;" edge="1" parent="1" source="nrHez7E21eq-uyOyRulU-22" target="nrHez7E21eq-uyOyRulU-16">
          <mxGeometry relative="1" as="geometry" />
        </mxCell>
        <mxCell id="nrHez7E21eq-uyOyRulU-22" value="Preparar" style="shape=rhombus;perimeter=rhombusPerimeter;whiteSpace=wrap;html=1;align=center;fillColor=#e1d5e7;strokeColor=#9673a6;" vertex="1" parent="1">
          <mxGeometry x="980" y="420" width="120" height="60" as="geometry" />
        </mxCell>
        <mxCell id="nrHez7E21eq-uyOyRulU-25" style="edgeStyle=orthogonalEdgeStyle;rounded=0;orthogonalLoop=1;jettySize=auto;html=1;exitX=0.5;exitY=0;exitDx=0;exitDy=0;startArrow=none;startFill=0;endArrow=ERmany;endFill=0;" edge="1" parent="1" source="nrHez7E21eq-uyOyRulU-23">
          <mxGeometry relative="1" as="geometry">
            <mxPoint x="1230" y="521" as="targetPoint" />
            <Array as="points">
              <mxPoint x="1230" y="521" />
            </Array>
          </mxGeometry>
        </mxCell>
        <mxCell id="nrHez7E21eq-uyOyRulU-26" style="edgeStyle=orthogonalEdgeStyle;rounded=0;orthogonalLoop=1;jettySize=auto;html=1;entryX=0.5;entryY=0;entryDx=0;entryDy=0;endArrow=ERmany;endFill=0;" edge="1" parent="1" source="nrHez7E21eq-uyOyRulU-23" target="nrHez7E21eq-uyOyRulU-3">
          <mxGeometry relative="1" as="geometry" />
        </mxCell>
        <mxCell id="nrHez7E21eq-uyOyRulU-23" value="Solicitar" style="shape=rhombus;perimeter=rhombusPerimeter;whiteSpace=wrap;html=1;align=center;fillColor=#e1d5e7;strokeColor=#9673a6;" vertex="1" parent="1">
          <mxGeometry x="1170" y="600" width="120" height="40" as="geometry" />
        </mxCell>
        <mxCell id="nrHez7E21eq-uyOyRulU-29" style="edgeStyle=orthogonalEdgeStyle;rounded=0;orthogonalLoop=1;jettySize=auto;html=1;entryX=0;entryY=0.5;entryDx=0;entryDy=0;startArrow=none;startFill=0;endArrow=ERmany;endFill=0;exitX=1;exitY=0.5;exitDx=0;exitDy=0;" edge="1" parent="1" source="nrHez7E21eq-uyOyRulU-37" target="nrHez7E21eq-uyOyRulU-34">
          <mxGeometry relative="1" as="geometry" />
        </mxCell>
        <mxCell id="nrHez7E21eq-uyOyRulU-33" value="&lt;font style=&quot;font-size: 19px&quot;&gt;Una cadena de restaurantes ha necesita almacenar al información de los clientes&lt;br&gt;y sus preferencias. De cada persona, identificada por su cédula de identidad,&lt;br&gt;se conoce su nombre dirección, teléfonos (casa, oficina, celular), el restaurante&lt;br&gt;que más frecuenta y las comidas que más le gustan. De cada restaurante,&lt;br&gt;identificado por su nombre, dirección y teléfono, además se conoce los platos&lt;br&gt;que preparan. De cada comida se conoce su nombre, su identificación, el&lt;br&gt;tiempo de preparación y los ingredientes que lo componen.&lt;br&gt;Aunque es una cadena de restaurantes los platos puede variar entre sucursales&lt;br&gt;en la preparación y en algunos de sus ingredientes.&lt;/font&gt;" style="text;html=1;strokeColor=none;fillColor=none;align=center;verticalAlign=middle;whiteSpace=wrap;rounded=0;" vertex="1" parent="1">
          <mxGeometry x="320" y="90" width="1200" height="180" as="geometry" />
        </mxCell>
        <mxCell id="nrHez7E21eq-uyOyRulU-36" style="edgeStyle=orthogonalEdgeStyle;rounded=0;orthogonalLoop=1;jettySize=auto;html=1;entryX=0;entryY=0.5;entryDx=0;entryDy=0;startArrow=ERmany;startFill=0;endArrow=none;endFill=0;exitX=0.988;exitY=0;exitDx=0;exitDy=0;exitPerimeter=0;" edge="1" parent="1" source="nrHez7E21eq-uyOyRulU-21" target="nrHez7E21eq-uyOyRulU-22">
          <mxGeometry relative="1" as="geometry">
            <Array as="points">
              <mxPoint x="950" y="480" />
              <mxPoint x="950" y="450" />
            </Array>
          </mxGeometry>
        </mxCell>
        <mxCell id="nrHez7E21eq-uyOyRulU-37" value="Tiene" style="rhombus;whiteSpace=wrap;html=1;fillColor=#e1d5e7;strokeColor=#9673a6;" vertex="1" parent="1">
          <mxGeometry x="560" y="420" width="130" height="60" as="geometry" />
        </mxCell>
        <mxCell id="nrHez7E21eq-uyOyRulU-38" style="edgeStyle=orthogonalEdgeStyle;rounded=0;orthogonalLoop=1;jettySize=auto;html=1;entryX=0;entryY=0.5;entryDx=0;entryDy=0;startArrow=none;startFill=0;endArrow=none;endFill=0;" edge="1" parent="1" source="nrHez7E21eq-uyOyRulU-1" target="nrHez7E21eq-uyOyRulU-37">
          <mxGeometry relative="1" as="geometry" />
        </mxCell>
        <mxCell id="nrHez7E21eq-uyOyRulU-3" value="Persona" style="swimlane;childLayout=stackLayout;horizontal=1;startSize=30;horizontalStack=0;rounded=1;fontSize=14;fontStyle=0;strokeWidth=2;resizeParent=0;resizeLast=1;shadow=0;dashed=0;align=center;fillColor=#a20025;strokeColor=#6F0000;fontColor=#ffffff;" vertex="1" parent="1">
          <mxGeometry x="1150" y="720" width="160" height="220" as="geometry" />
        </mxCell>
        <mxCell id="nrHez7E21eq-uyOyRulU-8" value="Rut" style="text;strokeColor=none;fillColor=none;spacingLeft=4;spacingRight=4;overflow=hidden;rotatable=0;points=[[0,0.5],[1,0.5]];portConstraint=eastwest;fontSize=12;fontStyle=5" vertex="1" parent="nrHez7E21eq-uyOyRulU-3">
          <mxGeometry y="30" width="160" height="30" as="geometry" />
        </mxCell>
        <mxCell id="nrHez7E21eq-uyOyRulU-9" value="Nombre" style="text;strokeColor=none;fillColor=none;spacingLeft=4;spacingRight=4;overflow=hidden;rotatable=0;points=[[0,0.5],[1,0.5]];portConstraint=eastwest;fontSize=12;" vertex="1" parent="nrHez7E21eq-uyOyRulU-3">
          <mxGeometry y="60" width="160" height="30" as="geometry" />
        </mxCell>
        <mxCell id="nrHez7E21eq-uyOyRulU-10" value="Dirección" style="text;strokeColor=none;fillColor=none;spacingLeft=4;spacingRight=4;overflow=hidden;rotatable=0;points=[[0,0.5],[1,0.5]];portConstraint=eastwest;fontSize=12;" vertex="1" parent="nrHez7E21eq-uyOyRulU-3">
          <mxGeometry y="90" width="160" height="30" as="geometry" />
        </mxCell>
        <mxCell id="nrHez7E21eq-uyOyRulU-11" value="tel_oficina" style="text;strokeColor=none;fillColor=none;spacingLeft=4;spacingRight=4;overflow=hidden;rotatable=0;points=[[0,0.5],[1,0.5]];portConstraint=eastwest;fontSize=12;" vertex="1" parent="nrHez7E21eq-uyOyRulU-3">
          <mxGeometry y="120" width="160" height="30" as="geometry" />
        </mxCell>
        <mxCell id="nrHez7E21eq-uyOyRulU-12" value="tel_casa" style="text;strokeColor=none;fillColor=none;spacingLeft=4;spacingRight=4;overflow=hidden;rotatable=0;points=[[0,0.5],[1,0.5]];portConstraint=eastwest;fontSize=12;" vertex="1" parent="nrHez7E21eq-uyOyRulU-3">
          <mxGeometry y="150" width="160" height="30" as="geometry" />
        </mxCell>
        <mxCell id="nrHez7E21eq-uyOyRulU-13" value="tel_cel" style="text;strokeColor=none;fillColor=none;spacingLeft=4;spacingRight=4;overflow=hidden;rotatable=0;points=[[0,0.5],[1,0.5]];portConstraint=eastwest;fontSize=12;" vertex="1" parent="nrHez7E21eq-uyOyRulU-3">
          <mxGeometry y="180" width="160" height="40" as="geometry" />
        </mxCell>
        <mxCell id="nrHez7E21eq-uyOyRulU-48" style="edgeStyle=orthogonalEdgeStyle;rounded=0;orthogonalLoop=1;jettySize=auto;html=1;startArrow=ERmany;startFill=0;endArrow=none;endFill=0;dashed=1;entryX=0.5;entryY=0;entryDx=0;entryDy=0;" edge="1" parent="1" source="nrHez7E21eq-uyOyRulU-34" target="nrHez7E21eq-uyOyRulU-49">
          <mxGeometry relative="1" as="geometry">
            <mxPoint x="800" y="620" as="targetPoint" />
          </mxGeometry>
        </mxCell>
        <mxCell id="nrHez7E21eq-uyOyRulU-34" value="Sucursal" style="swimlane;childLayout=stackLayout;horizontal=1;startSize=30;horizontalStack=0;rounded=1;fontSize=14;fontStyle=0;strokeWidth=2;resizeParent=0;resizeLast=1;shadow=0;dashed=0;align=center;fillColor=#e51400;strokeColor=#B20000;fontColor=#ffffff;" vertex="1" parent="1">
          <mxGeometry x="760" y="390" width="160" height="170" as="geometry" />
        </mxCell>
        <mxCell id="nrHez7E21eq-uyOyRulU-39" value="ID" style="text;strokeColor=none;fillColor=none;spacingLeft=4;spacingRight=4;overflow=hidden;rotatable=0;points=[[0,0.5],[1,0.5]];portConstraint=eastwest;fontSize=12;fontStyle=5" vertex="1" parent="nrHez7E21eq-uyOyRulU-34">
          <mxGeometry y="30" width="160" height="30" as="geometry" />
        </mxCell>
        <mxCell id="nrHez7E21eq-uyOyRulU-20" value="Dirección" style="text;strokeColor=none;fillColor=none;spacingLeft=4;spacingRight=4;overflow=hidden;rotatable=0;points=[[0,0.5],[1,0.5]];portConstraint=eastwest;fontSize=12;" vertex="1" parent="nrHez7E21eq-uyOyRulU-34">
          <mxGeometry y="60" width="160" height="30" as="geometry" />
        </mxCell>
        <mxCell id="nrHez7E21eq-uyOyRulU-21" value="Teléfono" style="text;strokeColor=none;fillColor=none;spacingLeft=4;spacingRight=4;overflow=hidden;rotatable=0;points=[[0,0.5],[1,0.5]];portConstraint=eastwest;fontSize=12;" vertex="1" parent="nrHez7E21eq-uyOyRulU-34">
          <mxGeometry y="90" width="160" height="30" as="geometry" />
        </mxCell>
        <mxCell id="nrHez7E21eq-uyOyRulU-31" value="Menú_variable" style="text;strokeColor=none;fillColor=none;spacingLeft=4;spacingRight=4;overflow=hidden;rotatable=0;points=[[0,0.5],[1,0.5]];portConstraint=eastwest;fontSize=12;" vertex="1" parent="nrHez7E21eq-uyOyRulU-34">
          <mxGeometry y="120" width="160" height="50" as="geometry" />
        </mxCell>
        <mxCell id="nrHez7E21eq-uyOyRulU-1" value="Cadena Restaurant" style="swimlane;childLayout=stackLayout;horizontal=1;startSize=30;horizontalStack=0;rounded=1;fontSize=14;fontStyle=0;strokeWidth=2;resizeParent=0;resizeLast=1;shadow=0;dashed=0;align=center;fillColor=#1ba1e2;strokeColor=#006EAF;fontColor=#ffffff;" vertex="1" parent="1">
          <mxGeometry x="350" y="390" width="160" height="120" as="geometry" />
        </mxCell>
        <mxCell id="nrHez7E21eq-uyOyRulU-19" value="Nombre" style="text;strokeColor=none;fillColor=none;spacingLeft=4;spacingRight=4;overflow=hidden;rotatable=0;points=[[0,0.5],[1,0.5]];portConstraint=eastwest;fontSize=12;" vertex="1" parent="nrHez7E21eq-uyOyRulU-1">
          <mxGeometry y="30" width="160" height="90" as="geometry" />
        </mxCell>
        <mxCell id="nrHez7E21eq-uyOyRulU-5" value="Comida" style="swimlane;childLayout=stackLayout;horizontal=1;startSize=30;horizontalStack=0;rounded=1;fontSize=14;fontStyle=0;strokeWidth=2;resizeParent=0;resizeLast=1;shadow=0;dashed=0;align=center;fillColor=#008a00;strokeColor=#005700;fontColor=#ffffff;" vertex="1" parent="1">
          <mxGeometry x="1170" y="380" width="160" height="140" as="geometry" />
        </mxCell>
        <mxCell id="nrHez7E21eq-uyOyRulU-16" value="ID" style="text;strokeColor=none;fillColor=none;spacingLeft=4;spacingRight=4;overflow=hidden;rotatable=0;points=[[0,0.5],[1,0.5]];portConstraint=eastwest;fontSize=12;fontStyle=5" vertex="1" parent="nrHez7E21eq-uyOyRulU-5">
          <mxGeometry y="30" width="160" height="20" as="geometry" />
        </mxCell>
        <mxCell id="nrHez7E21eq-uyOyRulU-15" value="tiempo_prep" style="text;strokeColor=none;fillColor=none;spacingLeft=4;spacingRight=4;overflow=hidden;rotatable=0;points=[[0,0.5],[1,0.5]];portConstraint=eastwest;fontSize=12;" vertex="1" parent="nrHez7E21eq-uyOyRulU-5">
          <mxGeometry y="50" width="160" height="20" as="geometry" />
        </mxCell>
        <mxCell id="nrHez7E21eq-uyOyRulU-17" value="Nombre" style="text;strokeColor=none;fillColor=none;spacingLeft=4;spacingRight=4;overflow=hidden;rotatable=0;points=[[0,0.5],[1,0.5]];portConstraint=eastwest;fontSize=12;" vertex="1" parent="nrHez7E21eq-uyOyRulU-5">
          <mxGeometry y="70" width="160" height="20" as="geometry" />
        </mxCell>
        <mxCell id="nrHez7E21eq-uyOyRulU-51" value="Calificación" style="text;strokeColor=none;fillColor=none;spacingLeft=4;spacingRight=4;overflow=hidden;rotatable=0;points=[[0,0.5],[1,0.5]];portConstraint=eastwest;fontSize=12;" vertex="1" parent="nrHez7E21eq-uyOyRulU-5">
          <mxGeometry y="90" width="160" height="20" as="geometry" />
        </mxCell>
        <mxCell id="nrHez7E21eq-uyOyRulU-18" value="Ingredientes" style="text;strokeColor=none;fillColor=none;spacingLeft=4;spacingRight=4;overflow=hidden;rotatable=0;points=[[0,0.5],[1,0.5]];portConstraint=eastwest;fontSize=12;" vertex="1" parent="nrHez7E21eq-uyOyRulU-5">
          <mxGeometry y="110" width="160" height="30" as="geometry" />
        </mxCell>
        <mxCell id="nrHez7E21eq-uyOyRulU-50" style="edgeStyle=orthogonalEdgeStyle;rounded=0;orthogonalLoop=1;jettySize=auto;html=1;entryX=0.5;entryY=0;entryDx=0;entryDy=0;dashed=1;startArrow=none;startFill=0;endArrow=none;endFill=0;" edge="1" parent="1" source="nrHez7E21eq-uyOyRulU-49" target="nrHez7E21eq-uyOyRulU-44">
          <mxGeometry relative="1" as="geometry" />
        </mxCell>
        <mxCell id="nrHez7E21eq-uyOyRulU-49" value="Se encuentra" style="shape=rhombus;perimeter=rhombusPerimeter;whiteSpace=wrap;html=1;align=center;fillColor=#e1d5e7;strokeColor=#9673a6;" vertex="1" parent="1">
          <mxGeometry x="780" y="620" width="120" height="60" as="geometry" />
        </mxCell>
        <mxCell id="nrHez7E21eq-uyOyRulU-44" value="Ciudad" style="swimlane;childLayout=stackLayout;horizontal=1;startSize=30;horizontalStack=0;rounded=1;fontSize=14;fontStyle=0;strokeWidth=2;resizeParent=0;resizeLast=1;shadow=0;dashed=0;align=center;fillColor=#fff2cc;strokeColor=#d6b656;" vertex="1" parent="1">
          <mxGeometry x="760" y="750" width="160" height="120" as="geometry" />
        </mxCell>
        <mxCell id="nrHez7E21eq-uyOyRulU-47" value="Nombre" style="text;strokeColor=none;fillColor=none;spacingLeft=4;spacingRight=4;overflow=hidden;rotatable=0;points=[[0,0.5],[1,0.5]];portConstraint=eastwest;fontSize=12;" vertex="1" parent="nrHez7E21eq-uyOyRulU-44">
          <mxGeometry y="30" width="160" height="30" as="geometry" />
        </mxCell>
        <mxCell id="nrHez7E21eq-uyOyRulU-46" value="Código postal" style="text;strokeColor=none;fillColor=none;spacingLeft=4;spacingRight=4;overflow=hidden;rotatable=0;points=[[0,0.5],[1,0.5]];portConstraint=eastwest;fontSize=12;" vertex="1" parent="nrHez7E21eq-uyOyRulU-44">
          <mxGeometry y="60" width="160" height="60" as="geometry" />
        </mxCell>
      </root>
    </mxGraphModel>
  </diagram>
</mxfile>
